<?xml version="1.0" standalone="no"?>
<!DOCTYPE svg PUBLIC "-//W3C//DTD SVG 1.1//EN" "http://www.w3.org/Graphics/SVG/1.1/DTD/svg11.dtd">
<svg xmlns="http://www.w3.org/2000/svg" xmlns:svg="http://www.w3.org/2000/svg" version="1.1" width="343.04941" height="348.53809" id="svg2678" viewBox="0 0 343.04941 348.53809">
  <defs id="defs2682"/>
  <g id="Layer1007-7" transform="translate(1033.8072,-1715.7121)">
    <path d="m -1024.3219,1828.9318 v -77.6999 l 2.5002,-0.2268 6.3796,53.5062 c 0,-21.107 0.3458,-73.7532 -11.0993,-82.1386 -1.1608,4.9782 -2.2204,5.1032 -2.2204,11.0993 l -0.6772,62.2335 z" style="fill:#000200;fill-rule:evenodd" id="path1990-2"/>
    <path d="m -1002.1221,1888.871 c 1.1597,4.9793 2.2204,5.104 2.2204,11.1004 l 0.2667,4.1174 6.0911,4.5317 15.842,-21.9691 -17.1924,18.2483 c -3.469,-6.3408 -2.7879,1.3386 -2.7879,-7.1489 v -2.2196 -4.4399 z" style="fill:#000200;fill-rule:evenodd" id="path1992-2"/>
    <path d="m -911.1022,1928.8307 0.5114,-22.7123 12.8083,13.8322 h 4.4402 c -1.8779,-2.8026 -12.3721,-15.5393 -15.5403,-15.5393 -2.928,0 -4.62,2.9795 -4.4402,6.6595 z" style="fill:#000200;fill-rule:evenodd" id="path1994-0"/>
    <path d="m -911.1022,1937.7105 c 8.1219,15.3496 20.8644,28.8604 44.3996,28.8604 h 4.44 c 31.6802,0 37.6115,-26.515 51.0593,-35.5198 0,-14.4976 4.4399,-14.1001 4.4399,-26.6398 v -17.7599 c 0,-7.4015 -4.5309,-16.7941 -8.8801,-19.9803 2.1855,9.3802 6.6606,16.0597 6.6606,26.6398 v 11.1004 c 0,24.3842 -28.0973,59.9389 -51.0602,59.9389 -37.87,0 -33.5279,-13.7954 -51.0591,-26.6397 z" style="fill:#000200;fill-rule:evenodd" id="path1996-3"/>
    <path d="m -966.6023,1975.4507 c 12.1743,18.1805 50.298,44.3999 79.9195,44.3999 h 24.4202 c 26.1683,0 57.2431,-23.0281 71.598,-37.1821 19.2141,-18.9465 28.3008,-45.2386 28.3008,-82.6971 v -2.2206 c 0,-21.7114 -6.1239,-53.6341 -17.7599,-62.1596 2.7309,11.7227 12.1502,24.4353 13.254,33.3664 1.6061,12.9982 2.2864,28.6254 2.2864,42.1132 0,55.1185 -48.1445,104.3396 -104.3396,104.3396 h -28.8596 c -3.5538,0 -35.4086,-13.5516 -39.6637,-15.8369 -12.7786,-6.8624 -18.6052,-17.0578 -29.1561,-24.1228 z" style="fill:#000200;fill-rule:evenodd" id="path1998-9"/>
    <path d="m -1008.7815,1973.2303 8.1836,-9.4045 c 12.2162,22.2979 23.021,46.4706 42.414,60.9262 12.4409,9.2735 50.5927,32.4212 69.2815,32.8376 -8.7542,-7.6084 -49.2293,-20.0403 -68.2497,-36.0901 -21.058,-17.7707 -29.7343,-39.2114 -44.5496,-64.6447 z" style="fill:#000200;fill-rule:evenodd" id="path2000-5"/>
    <path d="m -1022.1015,2013.19 -6.6603,11.1005 v -17.7599 l -5.0454,35.4577 z" style="fill:#000200;fill-rule:evenodd" id="path2002-0"/>
    <path d="m -780.1237,1835.5912 c 11.636,8.5255 17.7599,40.4482 17.7599,62.1596 v 2.2206 c 0,37.4585 -9.0867,63.7506 -28.3008,82.6971 -14.3549,14.154 -45.4297,37.1821 -71.598,37.1821 h -24.4202 c -29.6215,0 -67.7452,-26.2194 -79.9195,-44.3999 l -21.4197,-41.4491 c 16.5081,-29.2099 49.1652,-65.1101 92.4591,-65.1101 h 13.32 c 17.1635,0 26.6397,9.4754 26.6397,26.6397 0,13.0403 -11.5858,26.64 -24.4194,26.64 -8.3613,0 -4.1981,-1.4615 -13.3197,-2.2206 h -4.4402 l -12.8083,-13.8322 -0.5114,22.7123 v 8.8798 c 17.5312,12.8443 13.1891,26.6397 51.0591,26.6397 22.9629,0 51.0602,-35.5547 51.0602,-59.9389 v -11.1004 c 0,-10.5801 -4.4751,-17.2596 -6.6606,-26.6398 -4.6338,-19.8907 -26.1351,-31.0799 -51.0591,-31.0799 h -22.1998 c -29.7283,0 -83.6472,31.7639 -88.7995,51.0602 l -15.842,21.9691 -6.0911,-4.5317 -0.2667,-4.1174 c 0,-5.9964 -1.0607,-6.1211 -2.2204,-11.1004 l -13.32,-84.3597 -6.3796,-53.5062 -2.5002,0.2268 v 77.6999 l 13.9122,102.38 c 1.9618,1.819 -16.7619,71.9045 -18.3521,75.2188 v 17.7599 l 6.6603,-11.1005 13.32,-39.9597 7.0798,-16.3755 c 14.8153,25.4333 23.4916,46.874 44.5496,64.6447 19.0204,16.0498 59.4955,28.4817 68.2497,36.0901 l 22.127,2.8299 c 4.0793,2.0735 3.9753,3.8307 8.9527,3.8307 h 31.0799 c 7.2907,0 45.0728,-11.4092 51.5126,-15.0868 16.1186,-9.2098 25.2175,-15.9251 37.8751,-28.7246 10.9715,-11.0934 19.7895,-24.5662 27.25,-39.3494 7.1359,-14.1401 9.1698,-36.7824 16.5614,-47.8188 l 2.7859,-26.576 -0.5664,-60.0029 c 0,-5.9542 -16.7332,-45.4856 -20.5509,-50.4887 -11.6807,-15.3108 -17.6269,-25.7839 -32.1406,-38.9001 -20.139,-18.2004 -63.5179,-41.5908 -100.487,-41.5908 h -6.6603 l -31.0539,2.4863 c -27.5499,18.1644 -37.5454,19.0842 -61.7181,44.6003 -8.3985,8.8639 -33.7669,55.9885 -33.7669,72.7925 6.4389,-4.312 31.8881,-28.7056 39.4484,-36.0311 9.2177,-8.932 35.8633,-21.6885 51.5707,-21.6885 h 24.4202 c 33.565,0 68.1667,36.8533 82.1389,57.7196 z m -129.3245,188.8739 c 0,0 162.425,32.3235 155.1524,-145.455 0,0 -11.3134,-188.2837 -197.9807,-85.6571 239.0899,-208.6605 328.0853,298.2221 42.8283,231.1121 z m 5.7685,-174.6969 c 0,0 81.9193,-21.3877 86.7617,46.004 4.8425,67.3914 -82.3226,67.7951 -85.551,31.0725 0,0 50.5378,19.8635 52.8642,-27.8444 2.3264,-47.708 -54.0749,-49.2321 -54.0749,-49.2321 z" style="fill:#000200;fill-rule:evenodd" id="path2004-4"/>
  </g>
</svg>