<?xml version="1.0" standalone="no"?>
<!DOCTYPE svg PUBLIC "-//W3C//DTD SVG 20010904//EN" "http://www.w3.org/TR/2001/REC-SVG-20010904/DTD/svg10.dtd">
<!-- Created using Krita: https://krita.org -->
<svg xmlns="http://www.w3.org/2000/svg" 
    xmlns:xlink="http://www.w3.org/1999/xlink"
    xmlns:krita="http://krita.org/namespaces/svg/krita"
    xmlns:sodipodi="http://sodipodi.sourceforge.net/DTD/sodipodi-0.dtd"
    width="259.2pt"
    height="259.2pt"
    viewBox="0 0 259.2 259.2">
<defs/>
<path id="shape0" transform="matrix(0.999999979776634 0 0 0.999999979776634 33.4304104061423 26.6073630079125)" fill="#a0a0a0" fill-rule="evenodd" stroke="#a0a0a0" stroke-width="1.44" stroke-linecap="square" stroke-linejoin="bevel" d="M0 0C35.2741 35.9074 92.6372 43.4759 63.504 0L203.904 207.216Z" sodipodi:nodetypes="cccc"/><path id="shape0" transform="translate(32.3999999482916, 25.3766411826925)" fill="#a0a0a0" fill-rule="evenodd" stroke="#a0a0a0" stroke-width="1.44" stroke-linecap="square" stroke-linejoin="bevel" d="M0 0.00671807L63.504 0.00671807C63.2305 30.2594 40.8076 -0.520621 0 0.00671807Z" sodipodi:nodetypes="ccc"/><path id="shape01" transform="matrix(0 -1.00543184592889 0.991176662607802 0 180.874533755396 154.180041925364)" fill="#000000" fill-rule="evenodd" stroke="#000000" stroke-width="1.44" stroke-linecap="square" stroke-linejoin="bevel" d="M0 0C11.1407 13.1597 20.2297 29.314 28.584 37.08C36.6823 44.376 57.1416 47.941 68.256 52.9216C50.4077 44.765 38.2898 48.9995 27.72 39.384C16.4566 29.425 14.587 16.9958 0 0Z" sodipodi:nodetypes="ccccc"/><path id="shape1" transform="matrix(0.99117668930617 0 0 1.00543187301123 111.579389146143 195.225791755317)" fill="#000000" fill-rule="evenodd" stroke="#000000" stroke-width="1.44" stroke-linecap="square" stroke-linejoin="bevel" d="M39.456 0C29.1727 4.30351 16.0207 5.55151 0 3.744C16.9816 8.73049 30.1336 7.48249 39.456 0Z" sodipodi:nodetypes="ccc"/><path id="shape2" transform="matrix(1.21253129889529 0 0 1.22997002258641 25.4298810520892 210.153774029052)" fill="#000000" fill-rule="evenodd" stroke="#000000" stroke-width="1.44" stroke-linecap="square" stroke-linejoin="bevel" d="M0.811674 0C1.85653 9.29499 5.05812 17.0062 19.2926 20.1101C3.79275 21.7514 -2.36757 15.0481 0.811674 0Z" sodipodi:nodetypes="ccc"/><ellipse id="shape02" transform="matrix(0.759241040690531 -0.766935552318872 0.756061809918499 0.770160507046265 66.1973806458601 127.793815398025)" rx="81.9543848278022" ry="44.7023917242558" cx="81.9543848278022" cy="44.7023917242558" fill="#bd231e" fill-rule="evenodd" stroke="#bd231e" stroke-width="1.44" stroke-linecap="square" stroke-linejoin="bevel"/><path id="shape03" transform="matrix(0.993054239181723 -0.981910358915018 0.967988667228126 1.0073364259617 18.1600579559558 201.315993952746)" fill="#bd231e" fill-rule="evenodd" stroke="#bd231e" stroke-width="1.44" stroke-linecap="square" stroke-linejoin="bevel" d="M62.9152 3.98739C56.4109 1.47589 48.4675 2.86404e-16 39.8921 0C17.8603 -7.35826e-16 2.69803e-15 9.74199 0 21.7593C-2.69803e-15 33.7767 17.8603 43.5187 39.8921 43.5187C48.692 43.5187 56.8264 41.9645 63.423 39.3319C56.1961 30.6574 54.2676 12.72 62.9152 3.98739Z" sodipodi:nodetypes="cccccc"/><path id="shape3" transform="matrix(1.07148332997926 0 0 1.08689349031753 95.130154807167 34.2758492345267)" fill="#ffffff" fill-rule="evenodd" stroke="#ffffff" stroke-width="1.44" stroke-linecap="square" stroke-linejoin="bevel" d="M110.304 0.000218213C81.2673 -0.0775716 15.4958 20.6209 0 97.3442C8.25502 70.4683 16.8467 57.3785 40.032 33.9842C28.896 54.5282 33.312 67.2962 32.256 81.5042C42.0876 30.2109 43.7865 20.6302 110.304 0.000218213Z" sodipodi:nodetypes="ccccc"/><path id="shape4" transform="matrix(1.38678009875661 0 0 1.40672488284968 37.9279332090205 150.418220019403)" fill="#800e0e" fill-rule="evenodd" stroke="#800e0e" stroke-width="1.44" stroke-linecap="square" stroke-linejoin="bevel" d="M30.528 0C16.6383 7.47026 1.86346 22.5503 0 41.904C2.77388 34.1096 4.73821 26.3362 10.656 22.608C24.1186 20.2424 30.7267 17.5787 35.424 14.832C26.3203 17.8034 16.5181 21.5199 12.96 18.576C15.9893 12.1723 21.8453 5.98034 30.528 0Z" sodipodi:nodetypes="cccccc"/><ellipse id="shape5" transform="matrix(1.41940988633898 -0.040866174408142 0.0402867668528926 1.4398239546891 21.251223051894 223.057710401336)" rx="5.76" ry="5.76000000000001" cx="5.76" cy="5.76000000000001" fill="#800e0e" fill-rule="evenodd" stroke="#800e0e" stroke-width="1.44" stroke-linecap="square" stroke-linejoin="bevel"/><path id="shape6" transform="matrix(1.41950101314934 0.0374679661871346 -0.0369367390046771 1.43991639209266 6.09451547345985 207.872688215442)" fill="#800e0e" fill-rule="evenodd" stroke="#800e0e" stroke-width="1.44" stroke-linecap="square" stroke-linejoin="bevel" d="M14.7852 0.974182C10.3697 2.68589 7.38925 10.9335 7.04681 17.5324L5.24681 13.5004L2.29481 23.8684C-1.77984 16.0733 -0.425174 15.7111 6.33383 5.45441C11.742 -1.82043 12.6142 -0.0801344 14.887 0.974182Z" sodipodi:nodetypes="ccccccc"/><path id="shape04" transform="matrix(-0.0407379791801235 -1.43981089976153 -1.41939701650638 0.0413238761077361 50.8812403086693 255.731976710166)" fill="#800e0e" fill-rule="evenodd" stroke="#800e0e" stroke-width="1.44" stroke-linecap="square" stroke-linejoin="bevel" d="M14.7852 0.974182C10.3697 2.68589 7.38925 10.9335 7.04681 17.5324L5.24681 13.5004L2.29481 23.8684C-1.77984 16.0733 -0.425173 15.7111 6.33383 5.45441C11.742 -1.82043 12.6142 -0.0801341 14.887 0.974182Z" sodipodi:nodetypes="ccccccc"/><path id="shape7" transform="matrix(0.99117668930617 0 0 1.00543187301123 95.3439187741051 190.882313101022)" fill="#bd231e" fill-rule="evenodd" stroke="#bd231e" stroke-width="1.44" stroke-linecap="square" stroke-linejoin="bevel" d="M44.82 6.048C48.4816 6.10843 53.3056 4.09243 59.292 0C60.0307 4.69561 56.3862 9.15033 48.3584 13.3642C34.2835 34.9815 18.164 52.0548 0 64.584C19.4835 49.866 32.1118 29.7999 44.82 6.048Z" sodipodi:nodetypes="ccccc"/><path id="shape05" transform="matrix(0 -1.00543185175106 -0.991176668347431 0 63.7642578072784 153.109347249001)" fill="#000000" fill-rule="evenodd" stroke="#000000" stroke-width="1.44" stroke-linecap="square" stroke-linejoin="bevel" d="M39.456 0C29.1727 4.30351 16.0207 5.55151 0 3.744C16.9816 8.73049 30.1336 7.48249 39.456 0Z" sodipodi:nodetypes="ccc"/><path id="shape1" transform="matrix(0 -1.00543185175106 -0.991176668347431 0 68.0461537936353 169.578317127251)" fill="#bd231e" fill-rule="evenodd" stroke="#bd231e" stroke-width="1.44" stroke-linecap="square" stroke-linejoin="bevel" d="M44.82 6.048C48.4816 6.10843 53.3056 4.09243 59.292 0C60.0307 4.69561 56.3862 9.15033 48.3584 13.3642C34.2835 34.9815 18.164 52.0548 0 64.584C19.4835 49.866 32.1118 29.7999 44.82 6.048Z" sodipodi:nodetypes="ccccc"/><path id="shape06" transform="matrix(0.837650394179656 -0.537500910464454 0.529880131348549 0.849697550230115 141.818565403266 177.211149928287)" fill="#bd231e" fill-rule="evenodd" stroke="#bd231e" stroke-width="1.44" stroke-linecap="square" stroke-linejoin="bevel" d="M44.82 0.376324L51.7374 0C48.3006 12.2953 18.164 46.3831 0 58.9123C19.4835 44.1943 32.1118 24.1282 44.82 0.376324Z" sodipodi:nodetypes="cccc"/><path id="shape07" transform="matrix(0.537280489826358 -0.844902185848505 0.832923019287963 0.545007701499367 205.373082752401 123.329317012582)" fill="#bd231e" fill-rule="evenodd" stroke="#bd231e" stroke-width="1.44" stroke-linecap="square" stroke-linejoin="bevel" d="M51.7374 0C48.3006 12.2953 18.164 46.3831 0 58.9123C18.91 44.6275 31.3624 25.3048 43.6979 2.46407Z" sodipodi:nodetypes="cccc"/><ellipse id="shape08" transform="matrix(1.16028834445497 -0.0334058162512381 0.0329321829198691 1.1769757057292 214.77115947432 123.015642688286)" rx="2.9436063938535" ry="2.94360639385351" cx="2.9436063938535" cy="2.94360639385351" fill="#bd231e" fill-rule="evenodd" stroke="#bd231e" stroke-width="1.44" stroke-linecap="square" stroke-linejoin="bevel"/><path id="shape09" transform="matrix(0.99117665198574 0 0 -1.00543183515406 107.024794126324 80.8045380849983)" fill="#000000" fill-rule="evenodd" stroke="#000000" stroke-width="1.44" stroke-linecap="square" stroke-linejoin="bevel" d="M0 0C11.1407 13.1597 20.2297 29.314 28.584 37.08C36.6823 44.376 57.1416 47.941 68.256 52.9216C50.4077 44.765 38.2898 48.9995 27.72 39.384C16.4566 29.425 14.587 16.9958 0 0Z" sodipodi:nodetypes="ccccc"/><path id="shape01" transform="matrix(0.529880125670026 -0.849697541124231 -0.837650385202876 -0.537500904704262 84.3202253240798 120.422212123737)" fill="#bd231e" fill-rule="evenodd" stroke="#bd231e" stroke-width="1.44" stroke-linecap="square" stroke-linejoin="bevel" d="M44.82 0.376324L51.7374 0C48.3006 12.2953 18.164 46.3831 0 58.9123C19.4835 44.1943 32.1118 24.1282 44.82 0.376324Z" sodipodi:nodetypes="cccc"/><path id="shape02" transform="matrix(0.832923010361845 -0.545007695658728 -0.537280484068529 -0.844902176794011 137.438111900373 55.9536492314778)" fill="#bd231e" fill-rule="evenodd" stroke="#bd231e" stroke-width="1.44" stroke-linecap="square" stroke-linejoin="bevel" d="M51.7374 0C48.3006 12.2953 18.164 46.3831 0 58.9123C18.91 44.6275 31.3624 25.3048 43.6979 2.46407Z" sodipodi:nodetypes="cccc"/><ellipse id="shape03" transform="matrix(0.0329321825669475 -1.176975693116 -1.1602883320206 -0.0334058158932406 137.747338893559 46.4204087084647)" rx="2.9436063938535" ry="2.94360639385351" cx="2.9436063938535" cy="2.94360639385351" fill="#bd231e" fill-rule="evenodd" stroke="#bd231e" stroke-width="1.44" stroke-linecap="square" stroke-linejoin="bevel"/>
</svg>
